Coordinates
version=1
nRows=8
nColumns=46
inDegrees=yes

Units are S.I. units (second, meters, Newtons, ...)
Angles are in degrees.

endheader
time	pelvis_tilt	pelvis_list	pelvis_rotation	pelvis_tx	pelvis_ty	pelvis_tz	bb_angle	bb_tx	bb_ty	bb_tz	hip_flexion_r	hip_adduction_r	hip_rotation_r	knee_angle_r	knee_angle_r_beta	ankle_angle_r	subtalar_angle_r	mtp_angle_r	crank_angle_r	hip_flexion_l	hip_adduction_l	hip_rotation_l	knee_angle_l	knee_angle_l_beta	ankle_angle_l	subtalar_angle_l	mtp_angle_l	crank_angle_l	lumbar_extension	lumbar_bending	lumbar_rotation	arm_flex_r	arm_add_r	arm_rot_r	elbow_flex_r	pro_sup_r	wrist_flex_r	wrist_dev_r	arm_flex_l	arm_add_l	arm_rot_l	elbow_flex_l	pro_sup_l	wrist_flex_l	wrist_dev_l
      5.00500000	    -13.75506288	     -5.10934936	    -11.59183151	      0.15517637	      1.16356113	     -0.24524702	      0.00000000	      0.50000000	      0.00000000	      0.25000000	     93.82613905	      0.58098486	     -6.79345602	    104.38948717	      1.82194026	    -18.92931882	     -7.91652975	      0.00000000	      0.00000000	     38.15699355	    -16.46020298	     -8.59115395	     49.26271348	      0.85979655	      4.16269989	     -0.88115076	      0.00000000	      0.00000000	    -61.36980109	      4.94879438	     10.38373327	     89.87086242	      1.44350467	     30.74980508	     44.52370790	     20.02150945	      0.00000000	      0.00000000	     89.76834780	    -25.01343250	     51.39214226	     44.86230470	     25.25811998	      0.00000000	      0.00000000
      5.01000000	    -14.24732638	     -5.05440629	    -11.71084939	      0.15457627	      1.16417814	     -0.24546228	      0.00000000	      0.50000000	      0.00000000	      0.25000000	     93.64200709	      0.82709618	     -6.71470647	    102.88951057	      1.79576073	    -16.95328443	     -6.65979942	      0.00000000	      0.00000000	     39.44411117	    -16.71751692	     -8.33150668	     51.41717839	      0.89739906	      3.45634028	     -1.23504234	      0.00000000	      0.00000000	    -61.20720161	      5.25735727	     10.42379526	     89.87195705	      2.03666077	     30.40235911	     44.72425527	     19.95552335	      0.00000000	      0.00000000	     89.77702421	    -25.41297547	     51.65985596	     45.07935515	     25.23834412	      0.00000000	      0.00000000
      5.01500000	    -14.64234253	     -4.84704350	    -11.77767161	      0.15405832	      1.16482758	     -0.24564243	      0.00000000	      0.50000000	      0.00000000	      0.25000000	     93.27964215	      1.01334040	     -6.50276691	    101.32914143	      1.76852715	    -14.97080384	     -5.83306669	      0.00000000	      0.00000000	     40.65711791	    -16.78779200	     -8.13002629	     53.55872632	      0.93477612	      2.71025201	     -1.63767503	      0.00000000	      0.00000000	    -61.10977555	      5.49970507	     10.33361656	     89.87399973	      2.57414694	     30.10397472	     44.93967853	     19.92359021	      0.00000000	      0.00000000	     89.78760198	    -25.90079943	     51.68943428	     45.15529112	     25.19895799	      0.00000000	      0.00000000
      5.02000000	    -15.07394974	     -4.63979838	    -11.66703217	      0.15352695	      1.16528180	     -0.24629673	      0.00000000	      0.50000000	      0.00000000	      0.25000000	     92.80719460	      1.04368926	     -6.12174190	     99.67033818	      1.73957557	    -12.53665132	     -3.85088322	      0.00000000	      0.00000000	     42.01035476	    -16.62444060	     -7.53276384	     55.70262582	      0.97219422	      2.04268269	     -2.11129268	      0.00000000	      0.00000000	    -61.04106421	      5.98055542	      9.83108848	     89.87525218	      4.18878296	     28.47519970	     44.91543235	     19.50811853	      0.00000000	      0.00000000	     89.79543059	    -27.36139974	     52.22599364	     46.25354479	     25.12024448	      0.00000000	      0.00000000
      5.02500000	    -15.58808915	     -4.54922457	    -11.56190300	      0.15305083	      1.16538387	     -0.24674220	      0.00000000	      0.50000000	      0.00000000	      0.25000000	     92.27628408	      1.14794881	     -5.94586809	     97.88613977	      1.70843543	    -10.39499218	     -2.81836921	      0.00000000	      0.00000000	     43.55135849	    -16.61219183	     -6.86843215	     57.99615371	      1.01222384	      1.44849095	     -2.48425876	      0.00000000	      0.00000000	    -60.85460305	      6.42606901	      9.76630588	     89.87621565	      4.67546619	     28.26836969	     45.20090745	     19.45735967	      0.00000000	      0.00000000	     89.80138263	    -27.69881519	     51.99334639	     46.39645943	     25.04078887	      0.00000000	      0.00000000
      5.03000000	    -16.03866343	     -4.40984577	    -11.42805437	      0.15261462	      1.16555417	     -0.24707201	      0.00000000	      0.50000000	      0.00000000	      0.25000000	     91.56548922	      1.27926618	     -5.67551552	     96.00795523	      1.67565493	     -8.07442686	     -1.66369031	      0.00000000	      0.00000000	     45.01656553	    -16.50025359	     -6.19965406	     60.22035683	      1.05104350	      0.90821688	     -2.81100201	      0.00000000	      0.00000000	    -60.70631650	      6.81700564	      9.62580251	     89.87723503	      5.17183359	     28.00731130	     45.47746630	     19.43395538	      0.00000000	      0.00000000	     89.80784295	    -27.97229919	     51.74936523	     46.49851997	     24.97791966	      0.00000000	      0.00000000
      5.03500000	    -16.38441635	     -4.12751491	    -11.19918613	      0.15218096	      1.16554813	     -0.24757030	      0.00000000	      0.50000000	      0.00000000	      0.25000000	     90.73340545	      1.26566553	     -5.22147529	     94.13629991	      1.64298838	     -5.74133346	     -0.31609572	      0.00000000	      0.00000000	     46.40591616	    -16.13175838	     -5.53042573	     62.43565633	      1.08970777	      0.48384140	     -3.06513412	      0.00000000	      0.00000000	    -60.64586335	      7.18094045	      9.17801213	     89.87747635	      6.24749365	     26.71771042	     45.67547907	     18.99925657	      0.00000000	      0.00000000	     89.81133425	    -28.61912617	     51.67212745	     47.12041211	     24.66908450	      0.00000000	      0.00000000
      5.04000000	    -16.74318769	     -3.96545367	    -11.00878804	      0.15193426	      1.16551714	     -0.24770360	      0.00000000	      0.50000000	      0.00000000	      0.25000000	     89.73312731	      1.36518996	     -4.97250272	     92.12682781	      1.60791647	     -3.49660910	      0.29512755	      0.00000000	      0.00000000	     47.81034377	    -15.91746351	     -4.86630983	     64.65900169	      1.12851247	      0.05161057	     -3.37607153	      0.00000000	      0.00000000	    -60.54150564	      7.50740866	      9.06171011	     89.87773596	      6.53234509	     26.64234500	     45.94935638	     18.99216497	      0.00000000	      0.00000000	     89.81575950	    -28.61577928	     51.39731090	     47.11148179	     24.58909332	      0.00000000	      0.00000000
